<svg width="230" height="96" viewBox="0 0 230 96" fill="none" xmlns="http://www.w3.org/2000/svg">
<g id="Frame">
<path id="Vector" d="M65.2178 40.0964V56.8289C65.2178 58.7109 65.9671 60.5161 67.3008 61.8467C68.6345 63.1776 70.4435 63.9252 72.3296 63.9252C74.2157 63.9252 76.0246 63.1776 77.3584 61.8467C78.6921 60.5161 79.4414 58.7109 79.4414 56.8289V40.0964C79.4414 38.2143 78.6921 36.4093 77.3584 35.0785C76.0246 33.7477 74.2157 33 72.3296 33C70.4435 33 68.6345 33.7477 67.3008 35.0785C65.9671 36.4093 65.2178 38.2143 65.2178 40.0964ZM70.3083 56.8289V40.0964C70.3054 39.8276 70.3586 39.5612 70.4649 39.3142C70.5712 39.0671 70.7281 38.8451 70.9254 38.6622C71.1228 38.4792 71.3565 38.3396 71.611 38.2521C71.8658 38.1646 72.1361 38.1313 72.4044 38.1542C72.6623 38.1459 72.9192 38.1905 73.159 38.2851C73.399 38.3798 73.6169 38.5226 73.7993 38.7046C73.9817 38.8866 74.1247 39.104 74.2197 39.3434C74.3146 39.5828 74.3592 39.8391 74.3509 40.0964V56.8289C74.3431 57.3416 74.1356 57.8312 73.7723 58.1937C73.4089 58.5563 72.9182 58.7633 72.4044 58.7711C72.1391 58.7811 71.8742 58.7388 71.6251 58.6464C71.376 58.5543 71.1477 58.414 70.953 58.2337C70.7583 58.0531 70.6011 57.8363 70.4904 57.5953C70.38 57.3542 70.318 57.0938 70.3083 56.8289ZM120.465 33.3735H106.092V38.453H110.733V63.4024H115.823V38.453H120.465V33.3735ZM135.437 33.3735V56.8289C135.437 57.344 135.232 57.838 134.867 58.2022C134.502 58.5665 134.007 58.7711 133.491 58.7711C132.974 58.7711 132.479 58.5665 132.114 58.2022C131.749 57.838 131.544 57.344 131.544 56.8289V33.3735H126.304V56.8289C126.304 58.7308 127.061 60.5549 128.409 61.8996C129.757 63.2444 131.584 64 133.491 64C135.397 64 137.224 63.2444 138.572 61.8996C139.92 60.5549 140.677 58.7308 140.677 56.8289V33.3735H135.437ZM182 38.453V33.3735H169.423V63.4024H182V58.3229H174.514V50.5543H179.305V45.4747H174.514V38.453H182ZM101.3 63.4024H95.9106L92.1676 49.2096C93.1014 49.0253 93.9416 48.5214 94.5429 47.785C95.1443 47.0486 95.4692 46.1258 95.4614 45.1759V40.5446C95.4675 40.2682 95.4176 39.9935 95.3144 39.737C95.2113 39.4805 95.0571 39.2474 94.8612 39.052C94.6653 38.8565 94.4318 38.7027 94.1748 38.5998C93.9176 38.4968 93.6423 38.4469 93.3653 38.453H91.419V63.4024H86.3285V33.3735H93.3653C95.225 33.3569 97.0176 34.0662 98.3603 35.3502C99.7029 36.6342 100.49 38.3911 100.552 40.2458V45.0265C100.62 46.2672 100.399 47.5068 99.9053 48.6475C99.4117 49.7882 98.6591 50.799 97.7072 51.6L101.3 63.4024ZM158.045 33.3735V49.8073L152.804 33.3735H147.564V63.4024H152.804V48.7614L157.596 63.4024H163.285V33.3735H158.045ZM48 33.8217V63.8506H53.39V51.0024H58.3307V45.9229H53.39V38.9012H61.1754V33.8217H48Z" fill="#6D6D6D"/>
</g>
</svg>
