<svg width="230" height="96" viewBox="0 0 230 96" fill="none" xmlns="http://www.w3.org/2000/svg">
<g id="Frame">
<path id="Vector" d="M86.2079 25.1567V26.081L87.0909 26.2783C88.4482 26.608 88.6526 27.3999 89.1949 29.9065L90.6078 36.9534L86.6696 57.5372L81.3059 31.6739C80.694 28.8363 80.491 26.7256 82.6646 26.2634L83.6825 26.0662V25.1567H71V26.081L72.2905 26.4121C73.581 26.7418 74.1233 27.335 75.0064 31.228L83.6283 70.8784H85.8533L91.6243 40.9261L98.0212 70.8784H99.7874L108.071 32.4536C109.023 28.035 109.43 26.7783 111.061 26.3729L112.35 26.0418V25.1567H103.033V26.081L104.458 26.3445C106.496 26.7404 106.97 27.9931 106.019 33.0738L100.94 57.5372L95.7947 31.6739C95.2385 29.1011 94.9117 26.7256 97.1534 26.3297L98.6471 26.0662V25.1419L86.2079 25.1567ZM146.622 25.2811V26.2053L148.319 26.6013C149.811 26.931 150.423 27.4593 150.423 29.3065V61.3046C150.423 64.8666 150.423 69.5514 146.619 69.5514C144.447 69.5514 142.754 67.7042 142.887 66.4502C143.022 64.4058 146.689 64.5368 146.892 61.2384C147.096 58.9412 145.601 57.8602 144.108 57.6752C142.004 57.4116 139.424 59.1264 139.355 62.5572C139.288 66.976 142.275 71 147.365 71C152.997 71 156.682 67.3084 156.682 60.248L156.683 29.3714C156.683 27.5242 157.159 26.9296 158.516 26.6013L160 26.1905V25.2662L146.622 25.2811ZM123.747 25C117.975 25 114.717 29.6849 114.717 35.8196C114.717 47.2338 129.858 51.6538 129.858 61.9464C129.858 66.8286 127.753 69.5326 124.713 69.5326C120.165 69.5326 116.904 64.191 116.091 55.6792H115.073V70.7216H115.888C116.567 68.5596 117.45 68.3474 118.196 68.3474C119.487 68.3474 120.843 70.9824 124.781 70.9824C130.823 70.9824 134.76 65.9044 134.763 58.9074C134.763 45.1852 119.622 41.8206 119.622 31.9901C119.622 29.747 120.3 26.4499 123.696 26.4499C128.586 26.4499 130.691 32.7171 131.505 40.3045H132.523V25.2649H131.708C131.368 26.7161 130.758 27.3755 129.875 27.3755C128.313 27.3755 127.511 25.0014 123.764 25.0014L123.747 25ZM134.677 37.9384V38.1006L134.709 38.0817L134.692 37.9465L134.677 37.9384Z" fill="#666565"/>
</g>
</svg>
